<svg width="35" height="21" viewBox="0 0 35 21" fill="none" xmlns="http://www.w3.org/2000/svg">
<path d="M27.0481 11.4222C27.0481 11.4222 27.8422 11.567 28.2531 11.5665C28.1417 11.3698 29.0911 9.57538 29.5797 8.70277C30.2673 7.68031 31.074 6.76405 31.9998 5.954C30.8169 6.55781 29.8973 7.14248 28.8946 8.27769C27.9519 9.34507 27.0481 11.4222 27.0481 11.4222Z" fill="#9BB569"/>
<path fill-rule="evenodd" clip-rule="evenodd" d="M22.3799 9.25206C22.708 10.0107 23.1614 10.6793 23.74 11.2579C24.1784 11.6959 24.6795 12.0622 25.2434 12.3567C25.4499 11.8999 25.9001 10.9493 25.9001 10.9493C25.9001 10.9493 26.7655 8.39444 27.4531 7.37197C28.1407 6.34951 28.9474 5.43325 29.8732 4.6232C28.6903 5.22701 27.6552 6.00157 26.768 6.94689C25.8808 7.89221 25.1672 8.87918 24.6272 9.90782C24.4091 9.67689 24.1553 9.27521 23.8657 8.70277C23.5762 8.13034 23.4314 7.46481 23.4314 6.70619C23.4314 6.17901 23.5407 5.63255 23.7593 5.0668C23.9778 4.50105 24.3764 3.92887 24.9551 3.35026C25.4056 2.90075 25.9842 2.54716 26.6909 2.28948C27.3975 2.03181 28.1433 1.84537 28.9282 1.73016C29.713 1.61496 30.5007 1.55401 31.2912 1.54732C32.0817 1.54064 32.792 1.55015 33.422 1.57587C33.4863 2.89972 33.4734 4.04099 33.3834 4.99968C33.2934 5.95837 33.1618 6.77485 32.9884 7.44912C32.8151 8.12339 32.6094 8.6696 32.3713 9.08774C32.1331 9.50588 31.8983 9.83067 31.6669 10.0621C31.1397 10.5898 30.5868 10.9725 30.0082 11.2101C29.4296 11.4477 28.8446 11.5665 28.2531 11.5665C27.8422 11.567 27.0481 11.4222 27.0481 11.4222L26.4823 12.8556C27.0627 13.0248 27.6529 13.1094 28.2531 13.1094C29.0508 13.11 29.8321 12.9526 30.5969 12.6373C31.3617 12.322 32.0848 11.8237 32.7663 11.1422C33.2291 10.6783 33.618 10.1027 33.9327 9.41562C34.2475 8.72849 34.4918 7.92512 34.6656 7.00552C34.8395 6.08592 34.9457 5.05394 34.9843 3.90959C35.0228 2.76523 34.9907 1.51158 34.8878 0.148635C33.4482 0.0195415 32.1465 -0.0254611 30.9826 0.0136271C29.8187 0.0527153 28.7836 0.165351 27.8774 0.351534C26.9712 0.537717 26.1868 0.791533 25.5244 1.11298C24.862 1.43443 24.3057 1.82017 23.8557 2.2702C23.1609 2.96504 22.6594 3.70772 22.3513 4.49822C22.0432 5.28873 21.8889 6.08901 21.8884 6.89906C21.8879 7.70911 22.0517 8.49344 22.3799 9.25206Z" fill="#9BB569"/>
<path d="M14.3795 5.82565V7.2838C14.3795 8.33828 14.569 9.12914 14.9479 9.65638C15.3269 10.1836 15.9365 10.4472 16.7768 10.4472C17.1887 10.4472 17.65 10.3978 18.1608 10.299C18.6881 10.1836 19.2565 10.0106 19.8661 9.77995L20.6817 12.1773C19.9402 12.4738 19.24 12.6963 18.581 12.8445C17.9219 12.9928 17.2711 13.067 16.6285 13.067C14.9809 13.067 13.7205 12.5397 12.8472 11.4852C11.974 10.4308 11.5374 9.03028 11.5374 7.2838V5.82565C11.5374 4.06269 11.974 2.66221 12.8472 1.6242C13.7205 0.569721 14.9809 0.0424805 16.6285 0.0424805C17.2546 0.0424805 17.889 0.116624 18.5315 0.26491C19.1741 0.413197 19.8496 0.627388 20.5581 0.907484L19.7425 3.35421C18.5562 2.89287 17.5677 2.66221 16.7768 2.66221C15.9365 2.66221 15.3269 2.92583 14.9479 3.45307C14.569 3.96383 14.3795 4.75469 14.3795 5.82565Z" fill="#9BB569"/>
<path d="M10.2318 12.1031C9.375 12.4491 8.56766 12.6963 7.80975 12.8445C7.05184 12.9928 6.33513 13.067 5.6596 13.067C3.79778 13.067 2.38906 12.5397 1.43344 11.4852C0.477812 10.4308 0 9.03028 0 7.2838V5.80094C0 4.63112 0.214192 3.61783 0.642575 2.76106C1.07096 1.9043 1.68058 1.23701 2.47144 0.759198C3.2623 0.281386 4.19321 0.0424805 5.26417 0.0424805C6.13741 0.0424805 6.95299 0.223719 7.71089 0.586197C8.48528 0.932198 9.11138 1.48415 9.58919 2.24206C10.0835 2.98349 10.3306 3.93912 10.3306 5.10893C10.3306 5.45493 10.3059 5.82565 10.2565 6.22108C10.207 6.60003 10.1247 7.0037 10.0093 7.43209H2.7433C2.77625 8.45362 3.03163 9.21976 3.50944 9.73053C3.98726 10.2413 4.7534 10.4967 5.80788 10.4967C6.36808 10.4967 6.94475 10.4308 7.53789 10.299C8.14751 10.1671 8.77361 9.96943 9.41619 9.70581L10.2318 12.1031ZM5.26417 2.43978C4.50626 2.43978 3.91311 2.68692 3.48473 3.18121C3.07282 3.65902 2.83392 4.35102 2.76801 5.25722H7.51318C7.52965 5.17484 7.53789 5.10069 7.53789 5.03479C7.53789 4.95241 7.53789 4.87826 7.53789 4.81236C7.53789 4.0215 7.31546 3.42835 6.8706 3.03292C6.42574 2.63749 5.89027 2.43978 5.26417 2.43978Z" fill="#9BB569"/>
<path d="M0 20.9027V15.2893H1.26911L4.43211 19.0869H3.85613V15.2893H5.36929V20.9027H4.10019L0.927423 17.1051H1.51316V20.9027H0Z" fill="#9BB569"/>
<path d="M7.15137 20.9027L9.67005 15.2893H11.193L13.7214 20.9027H12.1985L10.1777 16.0312H10.6951L8.64501 20.9027H7.15137ZM8.52786 19.7897L8.92811 18.6768H11.7006L12.1009 19.7897H8.52786Z" fill="#9BB569"/>
<path d="M17.2706 20.9027V16.4901H15.5037V15.2893H20.5801V16.4901H18.8131V20.9027H17.2706Z" fill="#9BB569"/>
<path d="M22.3623 20.9027L24.881 15.2893H26.4039L28.9324 20.9027H27.4094L25.3886 16.0312H25.906L23.8559 20.9027H22.3623ZM23.7388 19.7897L24.1391 18.6768H26.9116L27.3118 19.7897H23.7388Z" fill="#9BB569"/>
<path d="M30.7144 20.9027V15.2893H32.2568V19.7019H35V20.9027H30.7144Z" fill="#9BB569"/>
</svg>
