<svg width="64" height="38" viewBox="0 0 64 38" fill="none" xmlns="http://www.w3.org/2000/svg">
<path d="M18.6008 22.0028C17.0432 22.6318 15.5755 23.0811 14.1977 23.3507C12.8199 23.6203 11.5169 23.7551 10.2888 23.7551C6.90415 23.7551 4.34318 22.7966 2.60591 20.8796C0.868635 18.9626 0 16.4166 0 13.2416V10.5458C0 8.41918 0.389388 6.57708 1.16816 5.01953C1.94694 3.46197 3.0552 2.24888 4.49294 1.38024C5.93068 0.511609 7.62302 0.0772921 9.56996 0.0772921C11.1575 0.0772921 12.6401 0.406774 14.018 1.06574C15.4258 1.69475 16.564 2.69817 17.4326 4.07601C18.3312 5.42389 18.7805 7.16116 18.7805 9.28782C18.7805 9.91683 18.7356 10.5908 18.6457 11.3096C18.5558 11.9986 18.4061 12.7324 18.1964 13.5112H4.98716C5.04707 15.3683 5.51134 16.7611 6.37997 17.6896C7.24861 18.6182 8.64142 19.0824 10.5584 19.0824C11.5768 19.0824 12.6252 18.9626 13.7035 18.723C14.8117 18.4834 15.9499 18.1239 17.1181 17.6447L18.6008 22.0028ZM9.56996 4.43544C8.19213 4.43544 7.11382 4.88474 6.33505 5.78333C5.58622 6.65196 5.1519 7.90998 5.03209 9.55739H13.6585C13.6885 9.40763 13.7035 9.27284 13.7035 9.15303C13.7035 9.00326 13.7035 8.86848 13.7035 8.74867C13.7035 7.31093 13.2991 6.23262 12.4904 5.51375C11.6816 4.79488 10.7082 4.43544 9.56996 4.43544Z" fill="#1C2A02"/>
<path d="M26.1411 10.5908V13.2416C26.1411 15.1586 26.4856 16.5963 27.1745 17.5548C27.8634 18.5133 28.9717 18.9926 30.4993 18.9926C31.2481 18.9926 32.0868 18.9027 33.0153 18.723C33.9738 18.5133 35.0072 18.1988 36.1155 17.7795L37.5981 22.1376C36.2502 22.6768 34.9772 23.0811 33.7791 23.3507C32.581 23.6203 31.3979 23.7551 30.2297 23.7551C27.2344 23.7551 24.943 22.7966 23.3555 20.8796C21.768 18.9626 20.9743 16.4166 20.9743 13.2416V10.5908C20.9743 7.38581 21.768 4.83981 23.3555 2.95277C24.943 1.03579 27.2344 0.0772921 30.2297 0.0772921C31.3679 0.0772921 32.5211 0.21208 33.6893 0.481657C34.8574 0.751233 36.0855 1.14062 37.3735 1.64982L35.8908 6.09783C33.7342 5.25915 31.937 4.83981 30.4993 4.83981C28.9717 4.83981 27.8634 5.31906 27.1745 6.27755C26.4856 7.20609 26.1411 8.64383 26.1411 10.5908Z" fill="#1C2A02"/>
<path d="M49.1718 20.765C49.1718 20.765 50.6155 21.0282 51.3625 21.0272C51.16 20.6696 52.8859 17.4075 53.7742 15.8212C55.0243 13.9624 56.4908 12.2967 58.1738 10.824C56.0233 11.9217 54.3515 12.9846 52.5288 15.0484C50.8149 16.9888 49.1718 20.765 49.1718 20.765Z" fill="#1C2A02"/>
<path fill-rule="evenodd" clip-rule="evenodd" d="M40.6853 16.8197C41.2818 18.1989 42.106 19.4144 43.1579 20.4662C43.9549 21.2625 44.8659 21.9284 45.8911 22.4638C46.2664 21.6334 47.0849 19.9052 47.0849 19.9052C47.0849 19.9052 48.6581 15.2606 49.9081 13.4018C51.1582 11.5431 52.6248 9.87735 54.3078 8.40472C52.1573 9.50241 50.2756 10.9105 48.6627 12.6291C47.0499 14.3476 45.7525 16.1419 44.7708 18.0119C44.3743 17.592 43.9129 16.8618 43.3865 15.8212C42.8601 14.7805 42.5969 13.5706 42.5969 12.1915C42.5969 11.2331 42.7956 10.2397 43.193 9.21116C43.5903 8.18266 44.315 7.14247 45.3668 6.09059C46.1859 5.2734 47.2378 4.63059 48.5225 4.16215C49.8072 3.69372 51.1629 3.35478 52.5897 3.14534C54.0165 2.9359 55.4485 2.8251 56.8856 2.81295C58.3227 2.80079 59.6139 2.81809 60.7593 2.86484C60.8762 5.27153 60.8528 7.3463 60.6892 9.08914C60.5256 10.832 60.2862 12.3163 59.9711 13.5421C59.656 14.7679 59.282 15.7608 58.8491 16.521C58.4162 17.2812 57.9894 17.8716 57.5686 18.2924C56.6102 19.2517 55.6051 19.9473 54.5532 20.3793C53.5014 20.8113 52.4378 21.0272 51.3625 21.0272C50.6155 21.0282 49.1718 20.765 49.1718 20.765L48.1434 23.3708C49.1984 23.6784 50.2714 23.8322 51.3625 23.8322C52.8127 23.8332 54.233 23.5471 55.6233 22.9739C57.0137 22.4008 58.3283 21.4947 59.5672 20.2559C60.4087 19.4125 61.1155 18.3662 61.6878 17.1171C62.26 15.8679 62.7041 14.4074 63.0201 12.7356C63.3362 11.0639 63.5293 9.18779 63.5994 7.10741C63.6695 5.02703 63.6111 2.74796 63.4241 0.270211C60.807 0.0355254 58.4405 -0.0462868 56.3246 0.0247733C54.2087 0.0958334 52.327 0.300598 50.6795 0.639069C49.0321 0.977539 47.6062 1.43896 46.4019 2.02334C45.1976 2.60771 44.1864 3.30897 43.3683 4.12709C42.1051 5.39028 41.1935 6.74042 40.6334 8.17752C40.0733 9.61461 39.7928 11.0695 39.7919 12.5421C39.791 14.0147 40.0888 15.4406 40.6853 16.8197Z" fill="#1C2A02"/>
<path d="M0 38V27.7952H2.30716L8.05732 34.699H7.01022V27.7952H9.76107V38H7.45391L1.686 31.0962H2.75085V38H0Z" fill="#1C2A02"/>
<path d="M13.0009 38L17.5797 27.7953H20.3483L24.9449 38H22.1763L18.5026 29.1441H19.4432L15.7162 38H13.0009ZM15.5032 35.9768L16.2309 33.9536H21.2711L21.9988 35.9768H15.5032Z" fill="#1C2A02"/>
<path d="M31.3969 38V29.9782H28.1846V27.7953H37.4133V29.9782H34.201V38H31.3969Z" fill="#1C2A02"/>
<path d="M40.6532 38L45.232 27.7953H48.0006L52.5972 38H49.8286L46.1549 29.1441H47.0955L43.3685 38H40.6532ZM43.1555 35.9768L43.8832 33.9536H48.9235L49.6511 35.9768H43.1555Z" fill="#1C2A02"/>
<path d="M55.8369 38V27.7953H58.641V35.8171H63.628V38H55.8369Z" fill="#1C2A02"/>
</svg>
