<svg width="50" height="30" viewBox="0 0 50 30" fill="none" xmlns="http://www.w3.org/2000/svg">
<path d="M38.64 16.3175C38.64 16.3175 39.7745 16.5243 40.3615 16.5236C40.2024 16.2425 41.5586 13.6791 42.2566 12.4325C43.239 10.9719 44.3914 9.66293 45.714 8.50572C44.0241 9.3683 42.7103 10.2035 41.278 11.8253C39.9312 13.3501 38.64 16.3175 38.64 16.3175Z" fill="#52A555"/>
<path fill-rule="evenodd" clip-rule="evenodd" d="M31.9712 13.2172C32.4399 14.301 33.0876 15.2561 33.9142 16.0827C34.5405 16.7085 35.2564 17.2317 36.0619 17.6524C36.3569 16.9999 37.0001 15.6419 37.0001 15.6419C37.0001 15.6419 38.2363 11.9921 39.2186 10.5314C40.201 9.07073 41.3534 7.76179 42.676 6.60457C40.9861 7.46716 39.5074 8.57368 38.24 9.92413C36.9725 11.2746 35.9531 12.6845 35.1816 14.154C34.8701 13.8241 34.5075 13.2503 34.0938 12.4325C33.6802 11.6148 33.4733 10.664 33.4733 9.58027C33.4733 8.82716 33.6295 8.0465 33.9417 7.23829C34.254 6.43007 34.8234 5.61268 35.65 4.78609C36.2936 4.14393 37.1202 3.6388 38.1298 3.27069C39.1393 2.90259 40.2047 2.63624 41.3259 2.47166C42.4471 2.30708 43.5723 2.22001 44.7016 2.21046C45.8309 2.20091 46.8456 2.2145 47.7457 2.25124C47.8375 4.14246 47.8191 5.77285 47.6906 7.1424C47.562 8.51196 47.3739 9.67836 47.1263 10.6416C46.8787 11.6048 46.5848 12.3851 46.2446 12.9825C45.9044 13.5798 45.569 14.0438 45.2384 14.3744C44.4853 15.1283 43.6954 15.6749 42.8688 16.0144C42.0422 16.3538 41.2065 16.5236 40.3615 16.5236C39.7745 16.5243 38.64 16.3175 38.64 16.3175L37.8319 18.3651C38.6609 18.6069 39.5041 18.7278 40.3615 18.7278C41.5011 18.7285 42.6172 18.5037 43.7097 18.0533C44.8023 17.6029 45.8353 16.8909 46.8089 15.9174C47.4701 15.2547 48.0256 14.4325 48.4753 13.4509C48.9249 12.4693 49.2739 11.3216 49.5223 10.0079C49.7706 8.69417 49.9223 7.21992 49.9774 5.58512C50.0325 3.95033 49.9866 2.1594 49.8397 0.212336C47.7831 0.0279165 45.9235 -0.036373 44.2608 0.0194673C42.5981 0.0753075 41.1194 0.236215 39.8248 0.502191C38.5302 0.768167 37.4097 1.13076 36.4634 1.58997C35.517 2.04919 34.7224 2.60024 34.0795 3.24314C33.0869 4.23577 32.3705 5.29674 31.9304 6.42603C31.4903 7.55533 31.2699 8.69858 31.2691 9.8558C31.2684 11.013 31.5024 12.1335 31.9712 13.2172Z" fill="#52A555"/>
<path d="M20.5421 8.32235V10.4054C20.5421 11.9118 20.8128 13.0416 21.3542 13.7948C21.8956 14.548 22.7664 14.9246 23.9669 14.9246C24.5553 14.9246 25.2143 14.854 25.944 14.7128C26.6972 14.548 27.5093 14.3009 28.3801 13.9714L29.5452 17.3961C28.4861 17.8197 27.4857 18.1375 26.5442 18.3493C25.6027 18.5612 24.673 18.6671 23.755 18.6671C21.4013 18.6671 19.6006 17.9139 18.3532 16.4075C17.1057 14.9011 16.4819 12.9004 16.4819 10.4054V8.32235C16.4819 5.80384 17.1057 3.80315 18.3532 2.32029C19.6006 0.813885 21.4013 0.0606842 23.755 0.0606842C24.6494 0.0606842 25.5556 0.166603 26.4736 0.378441C27.3916 0.590279 28.3566 0.896266 29.3687 1.2964L28.2036 4.79173C26.5089 4.13268 25.0967 3.80315 23.9669 3.80315C22.7664 3.80315 21.8956 4.17975 21.3542 4.93295C20.8128 5.66261 20.5421 6.79242 20.5421 8.32235Z" fill="#52A555"/>
<path d="M14.6168 17.2902C13.3929 17.7844 12.2395 18.1375 11.1568 18.3493C10.0741 18.5612 9.05018 18.6671 8.08514 18.6671C5.4254 18.6671 3.41294 17.9139 2.04777 16.4075C0.682591 14.9011 2.86102e-06 12.9004 2.86102e-06 10.4054V8.28705C2.86102e-06 6.61588 0.305991 5.16833 0.917966 3.94438C1.52994 2.72042 2.40083 1.76715 3.53063 1.08457C4.66043 0.401978 5.9903 0.0606842 7.52024 0.0606842C8.76773 0.0606842 9.93284 0.319597 11.0156 0.837422C12.1218 1.33171 13.0163 2.12022 13.6988 3.20294C14.405 4.26213 14.758 5.62731 14.758 7.29847C14.758 7.79276 14.7227 8.32235 14.6521 8.88725C14.5815 9.42862 14.4638 10.0053 14.299 10.6173H3.919C3.96608 12.0766 4.33091 13.1711 5.0135 13.9007C5.69608 14.6304 6.79058 14.9952 8.29698 14.9952C9.09726 14.9952 9.92107 14.9011 10.7684 14.7128C11.6393 14.5245 12.5337 14.242 13.4517 13.8654L14.6168 17.2902ZM7.52024 3.48539C6.43752 3.48539 5.59017 3.83846 4.97819 4.54458C4.38975 5.22717 4.04846 6.21575 3.95431 7.51031H10.7331C10.7567 7.39262 10.7684 7.2867 10.7684 7.19255C10.7684 7.07486 10.7684 6.96895 10.7684 6.8748C10.7684 5.745 10.4507 4.89764 9.81515 4.33274C9.17964 3.76784 8.41467 3.48539 7.52024 3.48539Z" fill="#52A555"/>
<path d="M2.86102e-06 29.861V21.842H1.81301L6.33158 27.267H5.50876V21.842H7.67042V29.861H5.85741L1.32489 24.436H2.16167V29.861H2.86102e-06Z" fill="#52A555"/>
<path d="M10.2163 29.8611L13.8144 21.842H15.99L19.6021 29.8611H17.4265L14.5396 22.9019H15.2788L12.3501 29.8611H10.2163ZM12.1827 28.2712L12.7545 26.6813H16.7152L17.287 28.2712H12.1827Z" fill="#52A555"/>
<path d="M24.6722 29.8611V23.5574H22.148V21.842H29.4V23.5574H26.8757V29.8611H24.6722Z" fill="#52A555"/>
<path d="M31.9459 29.8611L35.5441 21.842H37.7197L41.3317 29.8611H39.1561L36.2693 22.9019H37.0084L34.0797 29.8611H31.9459ZM33.9124 28.2712L34.4842 26.6813H38.4449L39.0167 28.2712H33.9124Z" fill="#52A555"/>
<path d="M43.8776 29.8611V21.842H46.0811V28.1457H50V29.8611H43.8776Z" fill="#52A555"/>
</svg>
